<?xml version="1.0" standalone="no"?>
<!DOCTYPE svg PUBLIC "-//W3C//DTD SVG 20010904//EN"
 "http://www.w3.org/TR/2001/REC-SVG-20010904/DTD/svg10.dtd">
<svg version="1.0" xmlns="http://www.w3.org/2000/svg"
 width="1024.000000pt" height="1024.000000pt" viewBox="0 0 1024.000000 1024.000000"
 preserveAspectRatio="xMidYMid meet">
<metadata>
Created by potrace 1.14, written by Peter Selinger 2001-2017
</metadata>
<g transform="translate(0.000000,1024.000000) scale(0.100000,-0.100000)"
fill="#000000" stroke="none">
<path d="M4825 10124 c-22 -2 -96 -9 -165 -14 -686 -59 -1401 -282 -2010 -628
-1251 -708 -2143 -1928 -2433 -3328 -79 -378 -102 -609 -102 -1029 0 -420 23
-651 102 -1029 253 -1218 965 -2311 1982 -3040 720 -517 1524 -816 2461 -918
152 -17 758 -17 910 0 752 81 1401 285 2010 630 1251 708 2143 1928 2433 3328
79 378 102 609 102 1029 0 420 -23 651 -102 1029 -253 1218 -965 2311 -1982
3040 -716 514 -1522 816 -2446 916 -98 11 -682 22 -760 14z m703 -310 c43 -5
47 -11 35 -52 -5 -21 -11 -23 -54 -20 -27 1 -50 3 -50 3 -1 0 -7 -91 -13 -202
-7 -112 -14 -205 -17 -207 -2 -3 -24 -2 -48 1 l-44 6 7 146 c4 80 9 171 13
202 l5 56 -51 5 c-28 3 -54 8 -57 11 -3 3 -3 20 1 37 l7 31 111 -6 c62 -3 131
-8 155 -11z m-398 -239 l0 -245 -43 0 -44 0 -6 107 c-4 58 -7 168 -7 245 l0
138 50 0 50 0 0 -245z m-309 196 c48 -48 49 -68 4 -87 -35 -14 -36 -14 -69 21
-18 19 -40 35 -47 35 -26 0 -59 -31 -59 -54 0 -32 27 -53 91 -72 125 -37 166
-83 156 -172 -10 -87 -69 -132 -177 -132 -72 0 -109 17 -141 66 -28 43 -24 61
16 74 33 11 36 10 74 -30 35 -37 44 -41 68 -35 60 15 82 66 43 102 -10 11 -53
29 -94 41 -117 34 -159 105 -120 200 25 59 67 82 153 82 60 0 65 -2 102 -39z
m961 10 c4 -3 18 -47 31 -96 l24 -90 54 83 c50 79 54 83 82 78 16 -3 36 -6 43
-6 25 0 15 -20 -68 -142 -82 -120 -83 -121 -98 -217 l-15 -96 -45 0 -45 0 1
40 c0 22 4 72 9 110 7 64 4 81 -29 195 -21 69 -40 133 -42 142 -5 16 0 17 43
12 26 -4 51 -9 55 -13z m-1432 -79 c52 -52 62 -152 21 -203 -17 -22 -17 -23
46 -115 35 -51 63 -95 63 -97 0 -8 -94 -27 -100 -21 -3 3 -28 42 -56 87 -49
79 -73 98 -101 79 -8 -5 -7 -31 8 -101 10 -52 18 -95 17 -97 -2 -1 -23 -5 -48
-9 l-45 -6 -48 236 c-27 130 -47 239 -44 241 10 10 139 32 195 33 57 1 66 -2
92 -27z m2124 -62 c127 -43 172 -87 183 -178 12 -102 -57 -245 -138 -287 -41
-22 -132 -18 -211 7 -37 12 -68 25 -68 29 0 7 121 397 135 437 6 17 33 15 99
-8z m-2574 7 c0 -1 4 -17 9 -34 l10 -33 -90 -27 c-63 -20 -89 -33 -89 -44 0
-20 20 -81 30 -93 5 -4 38 2 75 14 36 12 68 20 69 19 10 -12 24 -69 18 -72 -4
-3 -32 -12 -62 -22 -30 -10 -59 -21 -64 -25 -11 -11 22 -120 36 -120 7 0 50
12 96 26 46 14 86 23 88 21 3 -3 7 -20 10 -39 l6 -34 -130 -42 c-71 -23 -133
-42 -139 -42 -10 0 -157 459 -149 467 15 15 276 91 276 80z m-416 -164 c11
-54 66 -433 66 -457 0 -31 -75 -66 -95 -44 -32 35 -295 381 -295 389 0 8 64
39 81 39 5 0 54 -61 110 -135 56 -75 103 -134 105 -132 3 3 -39 260 -51 314
-4 17 2 26 22 37 40 22 51 20 57 -11z m3541 -45 c66 -28 122 -53 124 -54 2 -2
1 -15 -3 -29 -8 -33 -31 -32 -116 5 -38 17 -71 30 -74 30 -6 0 -40 -65 -50
-96 -6 -18 2 -24 59 -49 63 -26 72 -36 59 -69 -9 -22 -33 -20 -95 9 -30 13
-57 21 -61 17 -3 -4 -18 -33 -32 -65 l-25 -58 44 -19 c25 -11 65 -29 90 -40
25 -10 45 -21 45 -24 0 -13 -24 -56 -31 -56 -11 0 -243 101 -253 111 -11 9
174 439 189 439 6 0 64 -23 130 -52z m-3885 -340 c58 -111 106 -210 108 -220
4 -21 -63 -58 -77 -42 -13 13 -221 409 -221 420 0 11 50 42 70 43 10 0 52 -71
120 -201z m4275 152 c119 -71 142 -127 90 -215 -22 -39 -43 -53 -101 -70 -20
-5 -23 -17 -34 -120 -7 -63 -17 -115 -22 -115 -5 0 -27 9 -49 21 -33 16 -40
24 -36 42 3 12 11 60 18 106 11 78 10 85 -7 98 -10 7 -21 13 -25 13 -4 0 -27
-36 -51 -80 -25 -46 -49 -80 -58 -80 -8 1 -29 9 -47 18 l-32 17 117 207 c81
144 122 208 134 208 10 0 56 -23 103 -50z m-4502 -278 c70 -109 127 -205 127
-214 0 -8 -15 -23 -33 -33 l-33 -17 -152 97 c-84 54 -155 96 -156 94 -2 -2 34
-62 80 -134 46 -71 84 -135 84 -142 0 -13 -38 -43 -55 -43 -15 0 -268 398
-262 412 2 7 22 23 44 35 l39 22 137 -89 c75 -49 137 -87 137 -84 0 3 -32 55
-71 116 -40 61 -73 118 -76 127 -3 13 35 46 57 50 3 0 62 -88 133 -197z m2643
53 c480 -51 1023 -224 1434 -457 497 -283 895 -633 1241 -1093 245 -325 466
-761 580 -1145 115 -387 168 -782 163 -1210 -3 -339 -61 -729 -148 -1010 -14
-47 -35 -116 -45 -155 -24 -89 -92 -255 -171 -415 -141 -289 -248 -466 -413
-683 -32 -41 -61 -77 -65 -79 -4 -2 -34 -34 -67 -73 -64 -74 -65 -76 -109
-115 l-28 -25 17 40 c61 144 177 560 224 806 50 264 56 316 56 574 0 226 -2
258 -23 340 -65 258 -225 438 -455 510 -63 20 -121 28 -300 40 -317 22 -470
57 -668 155 -291 144 -520 338 -780 660 -36 44 -165 233 -171 250 -3 10 -245
69 -252 62 -12 -11 172 -264 303 -417 336 -391 729 -691 1059 -809 86 -30 230
-61 362 -76 245 -29 386 -71 500 -151 148 -105 226 -206 281 -370 30 -87 32
-106 36 -254 3 -120 0 -172 -11 -210 l-14 -50 -1 95 c-4 307 -176 565 -451
677 -40 16 -113 31 -213 44 -203 26 -255 35 -367 65 -307 82 -588 253 -934
569 -171 156 -201 186 -381 385 -128 142 -405 517 -405 549 0 6 -19 15 -42 21
-24 6 -67 18 -96 26 -86 25 -88 19 -28 -76 79 -126 256 -369 364 -500 198
-239 588 -612 827 -790 73 -55 75 -56 101 -78 12 -9 88 -62 169 -117 284 -193
391 -268 480 -341 95 -77 215 -196 255 -254 l25 -35 -50 36 c-90 65 -196 124
-452 253 -139 70 -277 141 -305 158 -372 222 -779 561 -1089 908 -230 257
-365 440 -554 750 l-101 164 -92 26 c-51 15 -92 25 -92 24 0 -3 83 -150 208
-369 302 -528 584 -872 1049 -1282 594 -522 819 -658 1243 -752 346 -77 527
-183 660 -386 88 -136 116 -243 107 -418 -6 -123 -24 -189 -79 -285 -91 -162
-233 -296 -432 -406 -53 -29 -74 -30 -29 -1 97 64 214 198 273 315 64 126 94
313 71 435 -36 190 -195 362 -404 436 -29 10 -114 32 -191 49 -152 35 -261 66
-346 100 -113 44 -332 178 -480 293 -274 213 -727 619 -900 808 -53 57 -108
118 -123 134 -38 41 -194 246 -246 323 -56 83 -103 168 -154 275 -22 48 -44
87 -47 87 -19 0 25 -333 66 -495 58 -229 110 -371 231 -629 191 -408 247 -598
247 -846 0 -209 -42 -369 -177 -675 -131 -299 -157 -397 -157 -594 0 -121 10
-190 45 -306 76 -251 290 -520 499 -625 29 -15 29 -15 -40 -21 -38 -4 -188
-10 -334 -14 -244 -6 -283 -5 -495 19 -142 15 -268 35 -330 51 -55 15 -129 33
-165 41 -158 34 -451 131 -584 193 -59 28 -110 51 -112 51 -16 0 -317 159
-389 205 -93 59 -222 144 -240 158 -5 4 -62 46 -125 92 -133 99 -239 194 -395
355 -207 214 -257 274 -405 485 -61 88 -153 232 -185 290 -20 39 -41 75 -45
80 -7 9 -161 351 -183 405 -5 14 -13 34 -18 45 -7 18 -66 209 -89 290 -104
365 -147 730 -137 1171 11 479 98 902 275 1345 61 153 145 321 244 489 202
345 527 735 809 972 257 217 588 429 889 571 358 168 820 297 1222 341 176 19
614 20 794 1z m2243 -21 l49 -37 -13 -36 c-7 -20 -23 -61 -35 -91 -52 -131
-69 -182 -58 -173 7 5 64 49 125 96 62 48 119 87 126 87 23 0 98 -62 93 -76
-3 -7 -66 -95 -141 -194 -85 -114 -142 -180 -153 -180 -26 1 -65 37 -56 52 4
7 44 63 89 123 94 128 105 145 84 129 -182 -142 -253 -194 -264 -194 -7 0 -22
8 -34 18 l-22 17 61 153 c33 84 60 156 60 159 0 3 -43 -51 -95 -120 -53 -70
-101 -127 -108 -127 -23 1 -59 39 -50 53 25 42 278 377 285 377 5 0 30 -16 57
-36z m-5355 -263 c140 -171 150 -188 144 -253 -5 -45 -11 -57 -50 -94 -74 -70
-146 -77 -207 -21 -54 50 -242 289 -238 301 3 7 19 23 35 34 l29 21 117 -144
c115 -141 130 -155 165 -155 24 0 71 45 71 68 0 10 -47 76 -105 148 -153 187
-144 171 -109 199 16 14 32 24 35 25 4 0 54 -58 113 -129z m5916 -187 c17 -15
30 -32 28 -39 -7 -30 -234 -435 -244 -435 -5 0 -23 13 -38 29 l-28 30 26 47
c14 25 26 52 26 60 0 7 -20 29 -44 49 l-44 36 -51 -32 -51 -32 -30 28 c-19 18
-27 32 -21 38 16 16 415 246 428 247 6 0 26 -12 43 -26z m270 -291 c109 -123
107 -120 79 -149 -12 -13 -27 -24 -32 -24 -6 0 -24 17 -42 37 l-32 37 -147
-130 c-81 -71 -153 -130 -160 -132 -7 -2 -25 12 -39 31 l-26 34 154 133 153
134 -34 41 -33 41 22 22 c12 12 28 22 37 22 9 0 54 -44 100 -97z m222 -303
c76 -22 129 -120 108 -202 -15 -54 -113 -154 -191 -194 -71 -37 -172 -40 -216
-8 -65 48 -90 140 -57 210 34 72 146 161 237 189 52 17 72 18 119 5z m301
-401 c9 -17 17 -36 17 -43 0 -6 -66 -50 -147 -96 -82 -46 -160 -91 -175 -100
l-27 -16 40 -68 c21 -37 39 -71 39 -75 0 -11 -59 -43 -69 -37 -10 6 -117 193
-123 213 -2 10 403 253 422 253 3 0 13 -14 23 -31z m177 -401 c33 -17 51 -35
68 -68 58 -116 -2 -217 -171 -287 -83 -35 -192 -38 -234 -7 -61 44 -90 151
-59 213 22 42 92 100 153 128 109 48 178 53 243 21z m197 -494 c91 -67 98
-213 14 -273 -41 -30 -59 -26 -78 15 -17 34 -17 36 1 46 58 32 72 80 34 115
-35 32 -60 35 -133 18 -152 -35 -223 -109 -163 -172 21 -22 59 -30 91 -17 12
4 13 13 4 45 -5 22 -8 42 -5 44 2 2 19 6 38 7 l34 3 23 -75 c12 -41 23 -78 23
-81 0 -9 -240 -80 -250 -74 -13 8 -13 48 1 62 8 8 6 14 -10 22 -24 13 -45 52
-54 97 -25 132 131 248 325 241 59 -2 83 -7 105 -23z m148 -430 c4 -30 3 -43
-7 -47 -7 -3 -44 -28 -81 -55 l-68 -50 98 -23 97 -24 8 -39 c5 -21 6 -41 3
-44 -2 -3 -70 12 -149 33 l-145 38 -103 -21 c-57 -11 -104 -19 -105 -18 -2 2
-6 23 -9 48 l-6 45 97 19 96 18 127 93 c86 64 128 89 133 80 4 -6 10 -31 14
-53z m-3910 -2082 c181 -155 300 -240 632 -450 238 -151 354 -260 423 -401 38
-76 51 -120 84 -272 39 -185 100 -284 206 -333 106 -49 234 -31 359 52 75 50
67 28 -18 -51 -84 -77 -149 -101 -258 -94 -63 4 -97 12 -145 34 -126 60 -183
144 -232 348 -15 61 -38 133 -51 162 -57 125 -170 235 -352 342 -312 184 -454
284 -622 438 -190 176 -414 453 -562 698 -17 28 42 -21 201 -169 124 -115 275
-252 335 -304z m1765 65 c0 -2 -12 -14 -27 -28 l-28 -24 24 28 c23 25 31 32
31 24z m261 -24 c13 -16 12 -17 -3 -4 -10 7 -18 15 -18 17 0 8 8 3 21 -13z
m-334 -95 c-3 -8 -6 -5 -6 6 -1 11 2 17 5 13 3 -3 4 -12 1 -19z m64 -175 c13
-16 12 -17 -3 -4 -10 7 -18 15 -18 17 0 8 8 3 21 -13z m142 -50 c-7 -2 -21 -2
-30 0 -10 3 -4 5 12 5 17 0 24 -2 18 -5z m264 -25 c-3 -8 -6 -5 -6 6 -1 11 2
17 5 13 3 -3 4 -12 1 -19z m-59 -23 c-3 -3 -9 2 -12 12 -6 14 -5 15 5 6 7 -7
10 -15 7 -18z m-2220 -85 c75 -185 101 -350 84 -547 -13 -152 -44 -275 -112
-455 -116 -303 -137 -397 -128 -570 13 -241 155 -455 378 -572 70 -37 216 -86
255 -86 13 0 26 -4 29 -9 8 -13 -173 -24 -257 -16 -154 15 -276 75 -404 198
-140 134 -212 277 -235 464 -23 190 20 356 166 647 148 293 184 398 207 611
11 93 10 133 -3 250 -9 77 -19 149 -24 160 -4 13 -4 17 3 10 6 -5 24 -44 41
-85z m2239 18 c-3 -8 -6 -5 -6 6 -1 11 2 17 5 13 3 -3 4 -12 1 -19z m10 -50
c-3 -8 -6 -5 -6 6 -1 11 2 17 5 13 3 -3 4 -12 1 -19z m23 -85 c0 -7 -4 -13
-10 -13 -5 0 -10 12 -10 28 0 21 2 24 10 12 5 -8 10 -21 10 -27z m-6610 -48
c37 -19 60 -62 60 -113 0 -82 -74 -125 -166 -97 -27 8 -50 15 -51 15 -6 0 -54
-93 -49 -97 3 -3 29 -1 58 5 29 5 54 9 56 7 2 -1 5 -18 8 -37 6 -34 5 -35 -32
-41 -22 -4 -62 -7 -90 -7 -39 0 -53 -4 -58 -17 -4 -9 -2 -21 4 -27 16 -16 12
-24 -22 -42 -31 -16 -32 -16 -51 7 -12 16 -17 36 -16 64 3 38 -1 46 -38 81
-71 68 -79 153 -21 220 48 55 134 67 197 27 22 -14 25 -13 55 15 58 55 101 65
156 37z m4695 -227 c0 -152 23 -263 75 -375 85 -181 201 -303 370 -388 111
-56 347 -99 585 -106 20 0 2 -9 -54 -25 -227 -64 -471 -50 -645 38 -176 89
-297 232 -356 423 -40 129 -37 353 6 501 8 30 16 54 17 54 1 0 2 -55 2 -122z
m1293 -75 c-10 -2 -28 -2 -40 0 -13 2 -5 4 17 4 22 1 32 -1 23 -4z m-138 -36
c0 -2 -10 -12 -22 -23 l-23 -19 19 23 c18 21 26 27 26 19z m317 -169 c-3 -7
-5 -2 -5 12 0 14 2 19 5 13 2 -7 2 -19 0 -25z m-390 -20 c-3 -8 -6 -5 -6 6 -1
11 2 17 5 13 3 -3 4 -12 1 -19z m-5464 -82 c42 -17 83 -66 98 -117 11 -34 10
-46 -7 -87 -23 -55 -41 -62 -79 -30 l-27 24 18 37 c17 36 17 38 -3 65 -40 55
-100 30 -89 -37 3 -20 8 -71 12 -113 l7 -78 -40 -39 c-69 -69 -159 -66 -226 8
-62 69 -72 156 -26 215 25 32 40 33 76 2 27 -23 27 -25 11 -43 -10 -11 -21
-33 -24 -50 -5 -25 0 -37 23 -63 25 -27 34 -32 57 -26 39 10 52 45 38 107 -28
119 -8 188 61 220 50 22 77 24 120 5z m5528 -23 c13 -16 12 -17 -3 -4 -17 13
-22 21 -14 21 2 0 10 -8 17 -17z m269 3 c0 -2 -8 -10 -17 -17 -16 -13 -17 -12
-4 4 13 16 21 21 21 13z m-1524 -297 c77 -191 205 -333 361 -400 134 -57 360
-76 527 -44 95 18 328 95 410 135 l61 30 -40 -36 c-257 -234 -548 -333 -825
-280 -158 31 -255 82 -366 191 -84 82 -132 160 -167 270 -25 77 -40 218 -32
293 l8 67 14 -69 c8 -38 30 -108 49 -157z m-4009 -21 c37 -41 35 -45 -42 -109
-41 -34 -74 -64 -71 -66 2 -2 55 3 117 11 l114 15 28 -26 c41 -40 35 -53 -25
-54 -29 -1 -77 -4 -106 -7 l-52 -7 -72 -152 c-39 -84 -74 -153 -79 -153 -4 0
-20 16 -35 35 l-27 36 49 106 c27 58 51 110 52 115 2 4 -11 8 -30 8 -25 0 -48
-13 -93 -50 -33 -28 -67 -50 -75 -50 -9 0 -27 14 -39 31 l-23 32 28 22 c16 13
99 82 184 153 85 72 160 131 166 131 6 1 20 -9 31 -21z m3813 -100 c1 -210
135 -459 312 -579 128 -87 251 -122 428 -121 165 1 352 44 560 129 94 38 434
207 548 271 39 22 72 40 72 38 0 -5 -201 -169 -255 -208 -146 -105 -367 -237
-491 -294 -39 -17 -115 -47 -170 -65 -95 -32 -106 -33 -254 -33 -185 -1 -246
12 -395 85 -197 95 -320 249 -370 461 -23 97 -18 368 6 368 5 0 9 -24 9 -52z
m-3517 -246 l27 -28 -175 -174 -175 -174 -35 34 -36 34 173 168 c95 92 178
167 184 167 5 1 22 -12 37 -27z m176 -168 c17 -14 31 -32 31 -40 0 -7 -18 -75
-40 -151 -22 -75 -39 -141 -37 -146 1 -5 43 39 92 97 49 58 94 106 100 106 16
-1 57 -39 53 -49 -6 -19 -303 -361 -313 -361 -5 0 -23 10 -39 23 l-28 23 50
179 c28 99 50 180 49 182 -1 1 -51 -54 -110 -123 -59 -68 -111 -124 -116 -124
-4 0 -18 11 -30 24 -28 30 -40 12 143 224 76 89 144 162 152 162 7 0 26 -12
43 -26z m5451 -219 c52 -27 83 -80 85 -142 l2 -56 91 -54 c51 -29 92 -59 92
-66 0 -8 -14 -24 -31 -36 -30 -22 -33 -23 -63 -8 -17 9 -58 34 -92 56 -59 38
-61 39 -83 21 l-24 -17 57 -75 c31 -41 56 -79 56 -84 0 -5 -16 -20 -35 -33
-32 -22 -37 -22 -48 -8 -142 185 -277 368 -277 376 0 12 111 99 159 123 43 22
73 23 111 3z m-346 -217 c9 -12 16 -27 16 -33 0 -6 -36 -32 -80 -58 l-81 -49
22 -36 c39 -65 39 -65 102 -27 32 19 62 35 67 35 8 0 40 -51 40 -64 0 -2 -25
-19 -55 -36 -30 -17 -57 -35 -60 -40 -6 -10 40 -96 56 -106 5 -3 43 15 83 40
41 25 79 46 85 46 9 0 41 -49 41 -63 0 -3 -54 -38 -120 -78 -103 -62 -123 -70
-134 -58 -18 19 -246 396 -246 406 1 10 220 142 237 143 6 0 19 -10 27 -22z
m-4465 -33 c52 -27 81 -71 81 -125 0 -60 -14 -100 -35 -100 -9 0 -29 7 -45 15
-26 13 -28 18 -20 41 22 58 -3 114 -52 114 -51 0 -178 -180 -178 -252 0 -31
39 -78 64 -78 9 0 31 14 51 32 l36 31 27 -20 c41 -31 38 -47 -14 -82 -58 -38
-111 -41 -174 -8 -60 30 -94 92 -85 157 13 90 82 206 157 260 34 25 50 30 100
30 32 0 72 -7 87 -15z m4129 -160 c19 -41 15 -51 -28 -70 -22 -10 -40 -22 -40
-27 0 -4 38 -85 85 -178 47 -93 85 -174 85 -180 0 -11 -52 -40 -73 -40 -7 0
-51 78 -101 180 -49 99 -90 180 -93 180 -2 0 -22 -9 -44 -20 -22 -12 -43 -18
-48 -16 -10 7 -35 65 -30 70 13 12 247 125 260 125 9 1 21 -10 27 -24z m-3734
-62 c27 -13 34 -21 31 -37 -3 -12 -23 -119 -44 -240 -22 -120 -42 -221 -45
-224 -3 -3 -24 3 -47 13 -35 16 -40 22 -36 44 21 104 24 93 -37 123 l-55 27
-39 -46 -39 -46 -35 14 c-20 8 -38 17 -40 20 -6 12 317 369 334 369 10 0 33
-8 52 -17z m3444 -301 c45 -121 82 -223 82 -229 0 -12 -44 -33 -68 -33 -9 0
-77 60 -150 133 l-133 132 31 -82 c16 -46 43 -119 60 -164 l30 -80 -35 -15
c-19 -7 -36 -14 -39 -14 -6 0 -166 435 -166 453 0 9 18 21 47 31 l47 16 118
-117 119 -118 -20 55 c-10 30 -33 92 -50 138 -17 46 -31 85 -31 88 0 7 42 23
61 23 11 1 37 -57 97 -217z m-3137 171 l47 -16 12 -146 c7 -80 16 -152 19
-158 4 -7 26 46 49 117 24 71 47 132 51 134 4 3 24 0 45 -6 27 -9 35 -16 30
-27 -3 -9 -37 -108 -76 -221 -38 -113 -73 -209 -78 -213 -10 -11 -90 13 -90
27 1 54 -35 354 -41 344 -4 -8 -28 -74 -54 -148 -25 -74 -49 -138 -54 -143
-11 -11 -71 13 -71 28 0 10 95 294 145 433 6 16 11 15 66 -5z m2645 -128 c10
-42 -1 -50 -85 -70 -45 -10 -84 -22 -87 -27 -6 -9 15 -88 27 -102 4 -5 36 -2
75 8 36 9 68 15 71 13 2 -3 6 -20 10 -39 l5 -35 -72 -18 c-80 -20 -75 -9 -49
-108 9 -33 14 -38 32 -33 81 21 167 39 171 35 2 -2 7 -20 11 -39 l6 -36 -140
-34 c-77 -19 -142 -32 -144 -29 -8 9 -121 468 -117 472 9 7 235 65 257 66 16
1 24 -6 29 -24z m-2033 -51 c41 -22 67 -71 67 -126 l0 -48 -45 0 -45 0 0 38
c0 71 -49 107 -96 70 -53 -42 -97 -205 -75 -279 21 -70 83 -77 117 -14 20 38
39 43 86 22 l28 -12 -23 -40 c-32 -56 -79 -85 -139 -85 -146 0 -210 115 -163
295 29 111 76 174 144 196 33 10 107 1 144 -17z m1581 -64 c28 -25 74 -107 64
-115 -5 -4 -71 -25 -78 -25 -4 0 -13 13 -20 29 -6 16 -23 39 -36 52 -23 22
-27 22 -52 8 -15 -8 -32 -26 -39 -39 -25 -50 -7 -207 31 -265 45 -68 126 -36
126 50 0 23 4 25 46 25 l47 0 -6 -52 c-12 -97 -69 -141 -174 -136 -56 4 -67 8
-98 38 -54 53 -78 126 -79 245 -1 84 2 106 20 135 33 57 77 80 150 80 56 0 67
-3 98 -30z m-1204 5 c69 -8 128 -15 133 -15 4 0 7 -16 7 -36 l0 -36 -57 6
c-32 4 -76 9 -99 12 l-41 6 -6 -39 c-14 -80 -11 -90 31 -97 20 -3 51 -6 69 -6
38 0 43 -6 36 -44 l-6 -29 -73 7 c-83 7 -77 12 -88 -85 -6 -54 -10 -52 127
-65 l69 -7 -6 -30 c-3 -17 -8 -33 -11 -36 -7 -6 -273 24 -281 32 -4 3 5 109
20 234 14 125 26 231 26 236 0 9 5 9 150 -8z m502 -45 c77 -36 89 -173 20
-237 l-25 -23 21 -52 c11 -29 29 -77 41 -105 l21 -53 -53 0 -52 0 -35 98 c-32
88 -38 97 -63 100 -27 3 -27 3 -27 -60 0 -35 -3 -80 -6 -100 -6 -37 -8 -38
-50 -38 l-44 0 0 238 c0 131 3 242 8 246 11 12 213 0 244 -14z"/>
<path d="M4198 9653 c-32 -5 -32 -8 -17 -86 10 -51 15 -57 36 -57 27 0 64 17
75 34 15 22 8 76 -12 96 -20 20 -28 21 -82 13z"/>
<path d="M6402 9408 c-37 -120 -48 -164 -39 -170 26 -17 85 -8 115 17 60 50
96 196 64 257 -13 23 -60 58 -79 58 -5 0 -32 -73 -61 -162z"/>
<path d="M7316 9138 l-35 -62 28 -17 c51 -31 66 -31 94 -3 40 39 37 85 -6 118
-19 15 -37 26 -40 26 -3 0 -22 -28 -41 -62z"/>
<path d="M5839 8716 c-2 -2 -173 -47 -379 -99 -696 -177 -1014 -258 -1200
-307 -102 -27 -237 -63 -300 -79 -63 -16 -149 -39 -190 -50 -41 -12 -151 -41
-245 -65 -547 -144 -831 -220 -864 -231 -17 -7 11 -40 51 -61 l28 -15 0 -384
0 -385 45 0 45 0 0 349 c0 193 3 352 8 354 4 3 117 -72 252 -165 135 -93 256
-177 270 -186 14 -9 55 -38 91 -64 74 -53 75 -53 82 -35 3 6 37 84 76 172 l70
160 43 13 c137 41 725 159 958 191 239 33 617 48 802 32 285 -25 558 -112 943
-301 360 -177 510 -266 945 -557 102 -68 196 -132 209 -142 l23 -18 -16 -144
c-9 -79 -19 -161 -23 -181 -7 -46 -7 -46 111 -9 143 46 322 100 436 132 95 27
143 41 295 86 74 22 97 32 93 43 -6 16 -670 525 -1149 880 -93 69 -342 253
-553 410 -212 157 -467 344 -567 415 -100 72 -216 156 -259 188 -68 49 -115
69 -131 53z"/>
<path d="M4161 7564 c-130 -14 -332 -49 -366 -63 -14 -6 -31 -37 -54 -97 -28
-75 -143 -369 -262 -673 -16 -40 -29 -79 -29 -86 0 -8 32 -14 103 -18 141 -9
473 -51 642 -82 192 -35 441 -91 850 -190 398 -97 467 -113 725 -173 140 -33
311 -71 380 -85 69 -14 222 -46 340 -71 118 -25 312 -66 430 -90 118 -25 253
-57 299 -70 47 -14 88 -23 93 -20 4 3 8 26 8 51 0 25 5 73 10 107 6 33 24 162
40 286 26 193 48 342 64 440 4 23 -6 33 -87 89 -218 150 -360 227 -622 336
-496 206 -1191 372 -1739 415 -181 14 -675 11 -825 -6z"/>
<path d="M2713 6970 c-139 -84 -24 -307 124 -240 102 46 120 157 37 230 -28
24 -44 30 -82 30 -29 0 -59 -8 -79 -20z"/>
<path d="M2730 6648 c-10 -25 -140 -486 -165 -584 -8 -34 -15 -98 -15 -141 0
-71 3 -85 28 -121 79 -118 215 -153 329 -86 82 48 133 153 118 246 -9 59 -100
408 -175 671 -11 36 -12 37 -61 37 -42 0 -51 -3 -59 -22z"/>
<path d="M3290 6414 c-20 -52 -23 -195 -6 -305 20 -133 20 -238 1 -312 -32
-124 -146 -311 -322 -530 -57 -70 -110 -141 -118 -157 -39 -76 -1 -174 112
-286 41 -41 79 -74 84 -74 5 0 -6 -30 -26 -67 -52 -98 -48 -151 20 -239 l34
-46 -26 -41 c-53 -84 -44 -155 32 -262 30 -42 55 -83 55 -91 0 -9 -13 -52 -29
-97 -15 -45 -31 -110 -35 -145 -9 -84 19 -171 83 -255 118 -153 280 -202 580
-177 228 20 370 23 421 9 252 -70 475 -427 581 -934 26 -126 48 -298 50 -395
0 -41 4 -86 8 -100 l7 -24 11 29 c6 17 24 84 40 150 25 109 28 137 28 300 0
270 -37 431 -156 672 -70 143 -123 218 -231 329 l-79 82 71 21 c299 91 557
288 676 518 19 36 32 68 30 71 -3 2 -32 -21 -64 -51 -146 -143 -375 -262 -632
-331 -234 -62 -601 -133 -810 -156 -218 -24 -348 18 -406 131 -36 72 -33 146
11 260 24 63 35 108 37 154 1 36 6 65 10 65 4 0 8 4 8 9 0 5 -21 12 -47 16
-36 5 -56 16 -85 45 -45 45 -49 80 -13 115 30 31 77 32 201 5 150 -33 245 -21
298 39 26 29 18 33 -42 21 -57 -13 -140 -2 -194 26 -18 9 -81 50 -140 91 -59
41 -121 79 -138 84 -16 6 -30 13 -30 15 0 2 11 20 25 40 68 101 54 151 -80
279 -124 119 -126 128 -46 208 180 183 371 484 417 657 22 85 22 210 0 333
-18 96 -18 249 -1 305 7 22 6 22 -79 22 -84 0 -87 -1 -96 -26z"/>
<path d="M3760 6230 c-57 -12 -100 -29 -122 -48 -34 -29 -17 -114 31 -154 20
-17 24 -17 98 7 241 79 538 39 807 -107 38 -21 72 -38 75 -38 16 1 -126 119
-212 177 -186 123 -306 163 -502 168 -71 2 -150 0 -175 -5z"/>
<path d="M6040 5894 c0 -19 189 -241 296 -346 264 -260 576 -429 854 -463 30
-4 66 -8 80 -10 14 -2 83 -6 154 -10 71 -4 168 -15 216 -25 151 -31 313 -119
412 -225 52 -54 60 -48 27 18 -63 123 -144 219 -239 281 -111 73 -214 103
-475 141 -287 42 -408 76 -561 157 -191 100 -402 276 -507 421 -16 23 -257 80
-257 61z"/>
<path d="M6460 5811 c0 -19 138 -134 225 -188 217 -136 400 -194 730 -232 99
-12 212 -30 250 -41 38 -11 71 -18 73 -15 9 9 -116 119 -201 176 -118 79 -198
119 -327 162 -137 47 -189 58 -484 106 -276 46 -266 44 -266 32z"/>
<path d="M3798 5755 c-4 -6 -18 -40 -31 -77 -32 -84 -68 -140 -109 -171 -59
-44 -136 -59 -192 -37 -16 6 -26 6 -26 0 0 -14 51 -59 91 -80 74 -39 220 -48
296 -19 13 5 23 5 23 0 0 -12 -63 -49 -96 -57 -40 -10 -9 -22 44 -17 64 6 164
39 206 68 68 46 81 47 34 1 -41 -41 -44 -46 -24 -46 53 0 176 57 263 122 18
14 72 62 120 109 49 46 106 99 128 117 32 26 36 32 19 32 -24 0 -151 -27 -324
-70 -134 -32 -287 -47 -360 -33 l-45 8 -5 80 c-3 44 -8 75 -12 70z"/>
<path d="M2200 5475 c0 -31 -3 -35 -25 -35 -16 0 -25 -6 -25 -15 0 -9 9 -15
25 -15 25 0 25 0 25 -98 0 -125 11 -144 78 -140 34 2 47 7 47 18 0 10 -10 15
-33 15 -18 0 -37 7 -42 15 -5 8 -10 54 -10 103 l0 87 40 0 c29 0 40 4 40 15 0
11 -11 15 -40 15 -39 0 -40 1 -40 35 0 28 -4 35 -20 35 -16 0 -20 -7 -20 -35z"/>
<path d="M1723 5438 c-13 -6 -32 -31 -44 -55 -31 -64 -23 -134 20 -176 29 -30
36 -32 103 -32 62 0 73 3 76 18 3 16 -1 18 -41 12 -32 -5 -53 -2 -76 9 -28 15
-61 61 -61 86 0 6 35 10 95 10 93 0 95 0 95 24 0 39 -20 84 -45 100 -28 18
-89 20 -122 4z m97 -38 c11 -11 20 -29 20 -40 0 -18 -7 -20 -70 -20 l-71 0 16
30 c27 51 71 64 105 30z"/>
<path d="M1965 5426 c-28 -28 -29 -34 -15 -70 6 -17 29 -35 67 -53 42 -20 59
-34 61 -50 5 -33 -35 -49 -88 -35 -34 8 -42 8 -47 -5 -9 -22 15 -33 78 -33 68
0 99 23 99 75 0 38 -21 59 -88 89 -47 22 -58 39 -35 61 12 13 27 15 65 10 45
-6 50 -5 46 11 -3 16 -14 20 -61 22 -50 3 -60 0 -82 -22z"/>
<path d="M2384 5225 c-10 -25 4 -45 30 -45 25 0 44 30 31 50 -10 15 -55 12
-61 -5z"/>
<path d="M3130 4931 c0 -5 30 -23 68 -41 37 -18 89 -49 116 -68 46 -34 48 -34
41 -11 -11 37 -43 67 -99 93 -54 25 -126 40 -126 27z"/>
<path d="M1667 4833 c-4 -3 -7 -12 -7 -20 0 -10 10 -12 40 -7 29 5 47 2 65
-10 51 -34 24 -109 -66 -181 -20 -16 -40 -38 -42 -47 -5 -16 4 -18 94 -18 59
0 99 4 99 10 0 6 1 13 1 18 1 4 -29 5 -66 4 l-68 -4 51 50 c52 51 79 113 67
152 -12 37 -54 60 -110 60 -28 0 -55 -3 -58 -7z"/>
<path d="M2246 4804 c-35 -26 -45 -39 -37 -47 8 -8 21 -6 47 6 l35 17 -3 -115
c-3 -114 -3 -115 20 -115 22 0 22 1 22 145 0 168 -1 169 -84 109z"/>
<path d="M2463 4805 c-34 -34 -35 -37 -31 -97 6 -80 34 -108 109 -108 28 0 59
5 70 11 19 10 19 9 3 -28 -8 -21 -18 -44 -21 -50 -7 -18 -63 -50 -100 -58 -62
-13 -30 -42 33 -31 53 10 111 68 129 129 44 149 -6 267 -112 267 -38 0 -50 -5
-80 -35z m126 -23 c36 -35 49 -97 26 -122 -37 -41 -112 -32 -134 16 -23 51
-10 97 34 122 30 17 44 15 74 -16z"/>
<path d="M1966 4805 c-33 -31 -46 -64 -46 -121 0 -84 44 -134 118 -134 91 0
146 105 108 205 -21 53 -52 75 -109 75 -33 0 -51 -6 -71 -25z m107 -26 c15
-11 31 -37 37 -57 24 -78 -36 -161 -96 -134 -60 28 -72 144 -19 189 32 28 45
29 78 2z"/>
<path d="M8195 8428 c-80 -52 -79 -50 -46 -82 l29 -28 42 72 c23 39 40 73 38
74 -1 2 -30 -14 -63 -36z"/>
<path d="M8742 7854 c-75 -37 -172 -132 -172 -167 0 -33 32 -67 63 -67 60 0
212 109 237 170 11 28 11 34 -7 58 -27 36 -58 38 -121 6z"/>
<path d="M9197 7070 c-77 -24 -166 -79 -183 -112 -18 -34 -4 -70 33 -87 57
-26 248 60 282 126 14 28 -2 67 -36 82 -30 14 -26 14 -96 -9z"/>
<path d="M1227 3486 c-31 -29 -34 -41 -11 -50 28 -11 51 -6 70 15 14 15 16 24
8 37 -17 26 -38 25 -67 -2z"/>
<path d="M975 3435 c-32 -31 -32 -66 0 -102 l25 -28 18 23 c10 13 29 44 43 68
21 39 22 46 9 54 -27 17 -70 11 -95 -15z"/>
<path d="M7704 1801 c-18 -11 -35 -24 -38 -30 -6 -10 61 -111 74 -111 3 0 20
13 38 29 39 37 41 69 6 105 -32 31 -39 32 -80 7z"/>
<path d="M3262 1255 c-28 -35 -52 -66 -52 -70 0 -7 70 -38 75 -33 5 5 35 161
32 164 -1 1 -26 -26 -55 -61z"/>
<path d="M5040 885 l0 -75 40 0 c50 0 80 27 80 73 0 17 -4 37 -8 44 -10 15
-57 33 -88 33 -23 0 -24 -2 -24 -75z"/>
</g>
</svg>
