<?xml version="1.0" standalone="no"?>
<!DOCTYPE svg PUBLIC "-//W3C//DTD SVG 20010904//EN"
 "http://www.w3.org/TR/2001/REC-SVG-20010904/DTD/svg10.dtd">
<svg version="1.0" xmlns="http://www.w3.org/2000/svg"
 width="750.000000pt" height="750.000000pt" viewBox="0 0 750.000000 750.000000"
 preserveAspectRatio="xMidYMid meet">
<metadata>
Created by potrace 1.14, written by Peter Selinger 2001-2017
</metadata>
<g transform="translate(0.000000,750.000000) scale(0.100000,-0.100000)"
fill="#000000" stroke="none">
<path d="M3680 7387 c-3 -2 -61 -7 -130 -11 -142 -8 -175 -11 -280 -26 -563
-81 -1077 -277 -1545 -590 -836 -559 -1415 -1474 -1564 -2470 -28 -186 -52
-517 -45 -625 24 -423 82 -754 185 -1072 76 -236 133 -364 281 -638 69 -127
72 -131 142 -177 39 -25 145 -99 236 -164 591 -420 873 -560 1675 -829 380
-127 591 -200 717 -249 l67 -25 -13 38 c-38 106 -128 239 -269 399 -214 241
-458 415 -982 699 -418 227 -608 361 -798 562 -356 378 -548 819 -626 1441 -5
41 -8 194 -7 340 3 212 8 291 25 395 86 531 310 1057 614 1445 83 105 304 340
415 440 188 169 461 351 699 466 395 191 769 284 1198 301 154 6 163 5 254
-22 306 -90 1061 -407 1376 -579 312 -170 582 -386 818 -656 308 -351 497
-718 623 -1207 130 -502 135 -1058 14 -1638 -25 -118 -69 -287 -108 -410 -5
-16 -33 -90 -62 -163 -208 -532 -568 -1011 -998 -1331 -435 -322 -905 -522
-1429 -607 -132 -22 -521 -30 -666 -15 -516 55 -1449 350 -1935 613 -154 83
-547 322 -557 339 -4 5 -16 14 -28 21 -54 28 255 -287 413 -422 103 -88 272
-212 416 -306 830 -543 1867 -716 2836 -473 638 160 1184 474 1669 958 428
428 750 950 917 1486 299 955 215 1935 -239 2803 -585 1120 -1701 1850 -2974
1947 -122 9 -330 17 -335 12z"/>
<path d="M3533 6842 c45 -106 146 -246 264 -365 145 -147 269 -222 848 -517
402 -204 463 -238 615 -339 338 -224 551 -464 640 -722 25 -72 33 -83 85 -124
98 -76 243 -214 314 -299 117 -140 172 -231 221 -365 l27 -74 7 60 c12 107 14
276 5 368 -26 264 -116 554 -241 780 -262 475 -589 790 -1090 1049 -282 146
-887 405 -1157 495 -195 66 -274 81 -425 81 l-125 0 12 -28z"/>
<path d="M3420 6634 c0 -284 157 -577 428 -795 255 -206 587 -374 1105 -560
298 -107 450 -169 611 -248 75 -36 136 -63 136 -59 0 27 -119 174 -218 269
-203 196 -302 257 -932 579 -525 268 -632 333 -816 492 -129 111 -215 217
-270 333 l-44 90 0 -101z"/>
<path d="M3817 5607 c89 -288 227 -498 438 -662 146 -114 306 -204 484 -271
37 -14 158 -52 271 -84 381 -109 503 -170 660 -329 181 -183 282 -400 336
-726 23 -136 27 -576 6 -720 -72 -499 -286 -1034 -579 -1442 -118 -165 -192
-251 -363 -422 -96 -96 -170 -172 -165 -169 72 38 321 185 389 230 253 168
503 389 674 596 388 472 613 1097 588 1637 -23 519 -210 957 -542 1274 -216
207 -454 338 -923 507 -726 262 -923 358 -1213 593 l-86 70 25 -82z"/>
<path d="M1180 5161 c0 -5 27 -15 60 -24 75 -19 125 -51 147 -97 16 -32 19
-87 23 -580 5 -491 8 -550 24 -600 82 -249 257 -371 564 -395 l92 -8 0 -131
c-1 -255 -16 -509 -33 -548 -19 -44 -71 -81 -149 -103 -32 -9 -58 -21 -58 -26
0 -13 881 -12 1016 2 425 43 690 243 785 594 30 108 33 373 6 480 -77 307
-336 532 -672 583 -38 6 -100 14 -137 17 l-68 7 0 121 c1 178 18 471 30 520
23 86 87 146 175 165 21 4 40 13 43 20 3 9 -62 12 -283 12 -217 0 -286 -3
-283 -12 2 -6 26 -17 54 -23 63 -15 101 -35 141 -77 64 -67 67 -81 71 -420 l4
-308 -436 0 c-278 0 -436 -4 -436 -10 0 -5 12 -12 28 -16 107 -24 157 -56 183
-119 13 -30 27 -600 16 -630 -8 -19 -74 -3 -155 36 -118 58 -209 178 -249 332
-13 51 -17 137 -20 492 -2 237 0 472 5 523 8 81 14 98 39 130 29 35 83 64 146
77 15 3 27 10 27 15 0 6 -128 10 -350 10 -194 0 -350 -4 -350 -9z m1529 -868
l24 -6 -6 -136 c-8 -226 -53 -365 -148 -466 -53 -56 -143 -109 -206 -121 l-33
-6 1 238 c1 255 10 469 22 480 17 17 295 31 346 17z m172 -29 c232 -69 414
-277 486 -553 23 -88 24 -109 20 -256 -6 -191 -25 -275 -93 -415 -84 -171
-233 -291 -421 -341 -90 -24 -301 -30 -369 -11 -144 41 -164 107 -164 548 l0
252 27 7 c65 16 172 75 226 124 42 39 68 75 97 135 57 116 71 179 76 351 3 83
7 156 9 163 6 16 41 15 106 -4z"/>
<path d="M4710 4390 c-150 -24 -262 -61 -336 -108 -138 -89 -239 -253 -289
-470 -22 -92 -20 -93 29 -22 63 94 120 156 187 200 77 53 136 75 265 100 60
11 181 36 269 55 257 55 408 77 545 78 69 0 145 -3 170 -7 l45 -8 -50 37 c-64
48 -212 118 -295 140 -100 27 -391 30 -540 5z"/>
<path d="M5487 3760 c-48 -64 -152 -150 -236 -194 -215 -113 -489 -102 -678
27 -37 25 -42 47 -14 64 22 14 85 102 79 109 -9 8 -144 -59 -205 -103 -61 -42
-190 -180 -179 -190 3 -3 27 -1 53 5 110 24 107 24 180 -25 90 -61 87 -56 69
-91 -9 -17 -16 -34 -16 -38 0 -12 72 5 90 21 16 14 22 15 52 2 19 -8 54 -18
77 -22 47 -8 65 -31 63 -82 -2 -45 18 -43 60 6 32 38 36 40 100 43 60 2 70 0
110 -28 59 -42 118 -63 191 -70 l62 -6 -30 19 c-42 27 -95 90 -95 112 0 14 14
23 49 35 48 15 51 15 103 -8 97 -44 244 -56 321 -26 21 8 22 8 2 15 -88 31
-205 116 -205 148 0 7 39 23 93 37 121 31 230 87 287 146 39 40 42 46 20 39
-14 -4 -68 -9 -122 -12 -74 -4 -108 -1 -146 11 -62 21 -106 59 -99 86 3 11 4
20 3 20 -1 0 -18 -22 -39 -50z"/>
<path d="M5798 2930 c-26 -52 -90 -153 -141 -225 -247 -346 -350 -550 -423
-835 -30 -121 -45 -235 -50 -400 l-5 -165 31 35 c44 49 188 268 246 375 157
287 287 641 349 950 24 118 51 335 44 352 -2 4 -25 -35 -51 -87z"/>
<path d="M4190 2272 c0 -21 -3 -22 -37 -15 -102 20 -177 -5 -268 -87 -57 -51
-123 -89 -157 -90 -49 0 6 -63 66 -74 52 -10 85 9 156 86 71 77 80 80 175 63
35 -6 43 -4 64 18 25 27 32 90 12 110 -8 8 -11 5 -11 -11z"/>
<path d="M3462 1720 c-67 -28 -153 -55 -191 -62 -68 -11 -87 -9 -161 19 -25 9
33 -48 64 -64 57 -30 92 -36 256 -43 150 -6 171 -10 230 -35 51 -22 85 -29
155 -32 83 -4 98 -2 193 31 96 34 110 36 229 36 153 0 218 17 277 73 46 43 44
54 -5 30 -73 -37 -187 -18 -359 59 -99 45 -151 47 -237 9 -39 -17 -78 -31 -86
-31 -8 0 -44 14 -80 30 -96 43 -135 40 -285 -20z"/>
<path d="M3415 1285 c52 -43 174 -117 234 -141 130 -53 285 -41 432 32 81 41
196 120 187 130 -2 2 -29 -6 -59 -17 -111 -42 -202 -60 -339 -66 -155 -6 -260
9 -393 58 -45 16 -83 29 -86 29 -3 0 8 -11 24 -25z"/>
</g>
</svg>
